<?xml version="1.0" encoding="utf-8"?>
<!-- Generator: Adobe Illustrator 26.2.1, SVG Export Plug-In . SVG Version: 6.00 Build 0)  -->
<svg version="1.1" xmlns="http://www.w3.org/2000/svg" xmlns:xlink="http://www.w3.org/1999/xlink" x="0px" y="0px"
	 viewBox="0 0 1024 1024" style="enable-background:new 0 0 1024 1024;" xml:space="preserve">
<style type="text/css">
	.st0{display:none;}
	.st1{fill:#C9C1F2;}
	.st2{fill:#F0ECA2;}
	.st3{fill:#8EBD6D;}
	.st4{fill:#8D94BF;}
	.st5{fill:#4F8A26;}
</style>
<g id="Layer_2" class="st0">
	
		<image style="display:inline;overflow:visible;" width="1124" height="938" xlink:href="64C01EF7B0498C89.png"  transform="matrix(0.8835 0 0 0.8835 0 98)">
	</image>
</g>
<g id="Layer_1">
	<path class="st1" d="M146.3,430.5H72c-3.2,0-6.1,1.7-7.6,4.5l-28.8,51.9c-1.9,3.3-1.3,7.5,1.4,10.3l66,67.9c1.6,1.6,2.5,3.8,2.5,6
		v47.6c0,3,1.6,5.8,4.2,7.4l14.6,8.9c2.6,1.6,5.8,1.7,8.5,0.3l27.9-14.7c3.4-1.8,5.2-5.6,4.5-9.4L147.4,523
		c-0.6-2.8,0.3-5.7,2.3-7.8l13.7-14c2-2,2.8-4.9,2.3-7.7l-10.8-56C154.1,433.4,150.5,430.5,146.3,430.5z"/>
	<path class="st2" d="M168.3,434.7l12.6,62.6c0.4,2-0.2,4.1-1.7,5.5l-15.4,15.4c-1.4,1.4-2.1,3.5-1.7,5.5l16.9,85.5
		c0.3,1.5,1.2,2.8,2.4,3.7l29.9,21.7c2.4,1.7,5.6,1.5,7.7-0.5l41.8-39c1.7-1.6,2.3-3.9,1.7-6.1l-12.4-43.4c-0.4-1.3-0.3-2.8,0.2-4
		l20-47.4c0.7-1.7,2.1-2.9,3.9-3.5l9.9-2.9c2.6-0.8,4.4-3.1,4.4-5.8v0c0-3.4-2.8-6.2-6.3-6.1l-15.4,0.5c-1.5,0.1-3-0.5-4.1-1.4
		l-46-38.5c-0.8-0.7-1.7-1.1-2.7-1.3l-38.6-7.6C171.2,426.7,167.4,430.5,168.3,434.7z"/>
	<path class="st3" d="M235.4,425.6l41-35.1c0.8-0.7,1.7-1.1,2.7-1.3l66.2-13.1c4-0.8,7.6,2.7,6.9,6.7l-4.2,25.2
		c-0.3,1.6-1.2,3-2.5,3.9l-40,27c-2.3,1.5-3.2,4.4-2.2,7l9.8,24.9c0.9,2.2,3,3.7,5.5,3.7h31.5c2.2,0,4.2,1.2,5.2,3.1l20,38.3
		c1.4,2.6,0.6,5.8-1.8,7.5l-42.2,30.2c-1.6,1.2-2.6,3.1-2.4,5.1l1.6,29c0.1,2.3-1.1,4.4-3.1,5.5l-37.4,19.6
		c-0.8,0.4-1.8,0.7-2.7,0.7h-9.9c-5.1,0-7.7-6-4.4-9.8l2.7-3c1.3-1.4,1.8-3.4,1.3-5.2L265,545.4c-0.3-1.3-0.2-2.6,0.4-3.7l15.2-34
		c0.6-1.4,1.7-2.5,3.1-3l20.8-8.5c2.9-1.2,4.4-4.5,3.3-7.4l-10.4-28.9c-1.1-3-4.3-4.6-7.3-3.6l-13.8,4.4c-1.7,0.6-3.7,0.3-5.2-0.8
		l-35.3-25C232.7,432.6,232.5,428.1,235.4,425.6z"/>
	<path class="st4" d="M322.7,452.6L322.7,452.6c1,5.7,6,9.9,11.8,9.9h21c4.4,0,8.5,2.4,10.6,6.4l20,37.6c2.5,4.8,8,7.3,13.3,6.1
		l5-1.1c4.8-1.1,8.5-5,9.2-9.9l8.2-54.9c0.9-6.2-3.1-12.1-9.2-13.5l-52.6-12.2c-3.6-0.8-7.3,0-10.1,2.3l-22.8,18
		C323.7,443.8,322,448.2,322.7,452.6z"/>
	<path class="st2" d="M430.5,491.7v23.6c0,6.3,3.4,12.1,8.9,15.3h0c1.2,0.7,2.6,0.9,4,0.6l71.3-15.5c3.1-0.7,5-3.8,4.3-6.8
		l-5.8-23.8c-0.6-2.7-3.1-4.5-5.9-4.3l-71.5,5.3C432.8,486.3,430.5,488.8,430.5,491.7z"/>
	<path class="st5" d="M416,529.6l6.6,82c0.4,4.6-4.6,7.7-8.6,5.4h0c-3-1.8-6.8-0.5-8.2,2.7L379,683.7c-0.9,2.1-0.4,4.6,1.2,6.2
		l4.4,4.5c4,4.1,0.2,10.9-5.4,9.6l-39.9-9.4c-2.8-0.6-5.6,0.8-6.6,3.5l-5.8,14.8c-0.9,2.2-3,3.6-5.3,3.6H211.7
		c-3.8,0-6.5-3.6-5.5-7.2l15.8-57c0.3-1.1,1-2.2,1.9-2.9l24-19.5c1.1-0.9,2.4-1.3,3.7-1.3l35.4,0.9c1,0,2-0.2,2.8-0.7l49.7-26.6
		c1.9-1,3-2.9,3-5v-30.8c0-1.8,0.8-3.4,2.2-4.5l42.6-33.4c0.8-0.6,1.7-1,2.7-1.2l19.5-2.9C412.7,523.9,415.7,526.3,416,529.6z"/>
	<path class="st4" d="M516.4,544.1l-39.1,33.7c-1.2,1.1-1.9,2.7-1.8,4.3l5.8,72.2c0.1,0.7,0,1.5-0.3,2.2l-4.8,13.1
		c-0.6,1.7-2,2.9-3.8,3.3l-29.3,6.1c-1.1,0.2-2.2,0.9-2.9,1.8l-19,23c-2,2.4-5.7,2.5-7.8,0.1l-16.8-19c-1.3-1.5-1.7-3.6-0.9-5.4
		l17.5-40.7c1.2-2.8,4.6-4,7.3-2.5l9.6,5.4c3.6,2,8-0.8,7.7-4.9l-6.6-87.9c-0.3-3.9,3.7-6.7,7.2-5.1l6.6,3c1,0.4,2,0.6,3.1,0.4
		l64-12C517.3,534.2,520.4,540.7,516.4,544.1z"/>
	<path class="st5" d="M527.7,491.9l17.2,35c2.1,4.2,1.2,9.3-2.3,12.5l-48.5,45.7c-2.3,2.1-3.5,5.2-3.4,8.3l2.3,50.5
		c0.3,5.5,4.6,9.9,10,10.2l18.6,1.2c2.5,0.2,4.9-0.6,6.9-2l80.1-57.7c1.8-1.3,4-2,6.3-2h29.5c3.7,0,7.2-1.9,9.2-5.1l15.7-25.7
		c2-3.2,2.1-7.2,0.4-10.6l-8.4-16.1c-0.7-1.3-1.1-2.8-1.2-4.2l-4.6-67.7c-0.5-7.2-7.8-11.9-14.6-9.3l-51.6,20
		c-1.2,0.5-2.4,0.7-3.7,0.7l-48.5,0.9C529.3,476.6,524.2,484.8,527.7,491.9z"/>
	<path class="st3" d="M367.7,377.9l-4.6,18.9c-1.4,5.8,2.4,11.5,8.3,12.4l57.5,9c5,0.8,8.6,5,8.6,10v28.6c0,5.6,4.6,10.2,10.2,10.2
		h72.9c5.6,0,10.2-4.6,10.2-10.2l-0.2-36.5c0-3.6,1.9-6.9,4.9-8.8l0.4-0.3c5.1-3.1,6.5-9.9,3-14.8l-24.5-33.3
		c-1.5-2-2.2-4.5-1.9-7.1l3-29.5c0.6-6-4.1-11.2-10.1-11.2h-53.6c-1.3,0-2.5,0.2-3.7,0.7L412.3,330c-2.4,0.9-4.4,2.8-5.5,5.1
		L393.1,364c-1.6,3.4-5,5.6-8.7,5.8l-7.3,0.3C372.6,370.4,368.8,373.5,367.7,377.9z"/>
	<path class="st5" d="M564.9,283.8L533,306.6c-1.4,1-2.2,2.5-2.3,4.1l-3,42.7c-0.1,1.3,0.3,2.6,1.1,3.7l25.3,34.6c1.9,2.6,5.5,3,8,1
		l45.3-36.8c3.7-3,2.2-8.9-2.4-9.8l-1.1-0.2c-1.5-0.3-2.7-1.2-3.6-2.4l-23.1-35.1c-1.5-2.3-1.1-5.3,0.9-7.1l0,0c2-1.9,2.4-5,0.8-7.2
		l-6.1-8.9C570.9,282.6,567.4,282,564.9,283.8z"/>
	<path class="st4" d="M596.8,382l-46.1,37c-3.3,2.6-5.2,6.6-5.2,10.9v16.5c0,7.7,6.2,13.9,13.9,13.9h24.1c1.7,0,3.3-0.3,4.8-0.9
		l61.3-22.8c3.7-1.4,6.7-4.3,8.1-8l6.2-15.7c3.9-9.8-4.2-20.2-14.7-18.9l-12.8,1.6c-4.1,0.5-8.1-0.8-11.2-3.6l-10.3-9.5
		C609.9,378,602.2,377.7,596.8,382z"/>
	<path class="st3" d="M715.5,617.5l74.3-22.7c5.4-1.7,7.8-8,4.9-12.9l-65.3-107c-0.6-0.9-1-2-1.1-3L717,408.3
		c-0.3-1.8-1.2-3.5-2.5-4.8l-14.3-13.8c-4.5-4.4-12-2.6-14.2,3.3L673,428.1c-0.4,1-0.5,2-0.5,3v84.5c0,1,0.2,1.9,0.5,2.8l31.7,93.6
		C706.2,616.5,711,618.9,715.5,617.5z"/>
	<path class="st1" d="M810.3,580.7l-69.3-111.8c-0.8-1.2-1.3-2.6-1.5-4.1l-5.3-39.7c-0.9-6.5,4.5-12.1,11-11.6l23.4,1.9
		c0.6,0.1,1.2,0.2,1.8,0.3l23.1,6.2c1.3,0.4,2.6,1,3.7,1.9l72.3,57.1c1.3,1.1,2.4,2.4,3.1,4l27.5,63.2c2.4,5.6-0.5,12-6.3,13.9
		L822.2,585C817.7,586.5,812.8,584.7,810.3,580.7z"/>
	<path class="st2" d="M776.8,330.1l120-26.2c4.1-0.9,8,2.1,8.3,6.3l4.4,74.5c0.1,1.1,0.4,2.3,1,3.2l66.1,104.8
		c1.7,2.7,1.3,6.3-1,8.6l-46.4,44.5c-3.4,3.2-8.9,2.2-10.9-2.1l-31-66.9c-0.4-1-1.1-1.8-1.9-2.5l-83.6-66.3
		c-0.8-0.6-1.7-1.1-2.6-1.3l-37.6-9.1c-3.1-0.7-5.2-3.5-5.2-6.6v-20.9c0-2.7,1.6-5.1,4-6.2l9.6-4.4c2.8-1.3,4.4-4.2,3.9-7.2
		l-2.2-14.6C770.9,334.3,773.2,330.9,776.8,330.1z"/>
	<path class="st3" d="M756.3,336.9l0.1,4.8c0.1,4.1-2.4,7.8-6.2,9.3l-2.2,0.9c-3.9,1.6-6.3,5.4-6.2,9.6l1.3,26.7c0.2,4.8-3,9-7.7,10
		l0,0c-3.6,0.8-7.3-0.5-9.6-3.4L706,370.7c-2.4-2.9-6.1-4.2-9.8-3.4L641,379.8c-2,0.4-4,0.3-5.9-0.5l-2.2-0.9
		c-6.7-2.7-8.2-11.5-2.8-16.4l6.3-5.7c5.5-4.9,3.8-13.9-3.2-16.5l-17.4-6.4c-1.8-0.7-3.4-1.9-4.5-3.4l-8.6-11.8
		c-3.7-5.1-1.8-12.2,4-14.8l16.7-7.4c3.7-1.6,8.1-0.8,10.9,2.1l12.5,12.7c2.7,2.7,6.8,3.6,10.4,2.3l47.5-17.8
		c3.3-1.2,7.1-0.6,9.8,1.7l38.4,32.4C755,331.5,756.2,334.1,756.3,336.9z"/>
	<path class="st1" d="M673.3,197.1l30.5,50.2c0.5,0.8,0.7,1.7,0.7,2.6v29.9c0,2.1-1.3,3.9-3.2,4.6l-39.6,14.9
		c-1.9,0.7-4.1,0.2-5.4-1.4l-16.4-18.8c-1.4-1.6-3.6-2.1-5.6-1.3l-34.8,14.1c-2.3,0.9-4.9,0-6.1-2.1l-27-46.7
		c-0.6-1-0.8-2.2-0.6-3.3l1.4-7.7c0.2-1,0.1-2-0.4-2.9l-8-17.4c-1.5-3.3,0.9-7.1,4.6-7l64.4,1.6c1.4,0,2.8,0.7,3.7,1.8l4.1,4.9
		c1.7,2,4.6,2.4,6.7,0.8l23.9-17.9C668.5,194,671.8,194.7,673.3,197.1z"/>
	<path class="st2" d="M558.5,258.5l3.7,6.1c1.3,2.2,0.7,5-1.3,6.5l-39.4,28.5c-0.8,0.6-1.8,0.9-2.7,0.9l-58.3,1.5
		c-3.5,0.1-6-3.4-4.7-6.7l6-15.1c0.6-1.5,0.4-3.2-0.5-4.5l-15.7-23.6c-1.8-2.8-0.5-6.5,2.8-7.4l38.3-10.8c2.3-0.6,4.7,0.4,5.7,2.6
		l13.9,28.3c0.8,1.7,2.5,2.7,4.4,2.7h26.9c1.2,0,2.3-0.4,3.2-1.2l10.4-9C553.4,255.3,556.9,255.9,558.5,258.5z"/>
	<path class="st4" d="M430.2,306.9l-25.5,11.7c-2.7,1.2-5.7,1.4-8.5,0.5l-26.1-8.7c-3.5-1.2-6.2-3.9-7.4-7.4l-10.2-31.2
		c-0.9-2.7-0.7-5.7,0.4-8.3l11.2-25.4c1.5-3.3,4.4-5.8,7.9-6.6l25.8-6.1c4.6-1.1,9.5,0.7,12.2,4.6l28.8,41.1
		c1.9,2.6,2.5,5.9,1.8,9.1l-4,18.6C436,302.4,433.5,305.4,430.2,306.9z"/>
	<path class="st5" d="M343.9,246.4l-6.4,12.1c-1.3,2.5-1.6,5.5-0.7,8.2l16.6,49.9c1.2,3.6,4.2,6.3,8,7l17.8,3.5
		c6.4,1.2,10.1,7.9,7.9,14l-3.6,9.7c-1.3,3.5-4.4,6.1-8.1,6.7L276,374c-1.9,0.3-3.7,1.1-5.1,2.4l-46.7,40.1
		c-2.3,1.9-5.2,2.8-8.2,2.5l-30-3.7c-6.9-0.9-11-8-8.5-14.4l33.8-83.7c1.8-4.5,6.4-7.1,11.2-6.5h0c4.2,0.6,8.3-1.4,10.5-5.1l5.3-9
		c2.4-4.1,1.8-9.4-1.6-12.8l-4.6-4.6c-4-4-4.1-10.4-0.3-14.6l34-37.1c2.3-2.5,5.6-3.7,9-3.3l61.1,7
		C343.2,231.9,347.4,239.9,343.9,246.4z"/>
	<path class="st5" d="M893.6,289.2l-127.4,30.5c-2.2,0.5-4.5,0-6.3-1.4l-36-28.5c-1.8-1.4-2.8-3.5-2.8-5.8v-35.4
		c0-1.4-0.4-2.7-1.1-3.9l-33.3-54.5c-1.4-2.3-1.4-5.2-0.1-7.6l2.8-4.7c1.3-2.2,1.3-4.8,0.2-7.1v0c-2.4-4.8,0.9-10.5,6.3-10.7
		l59.2-2.1c0.7,0,1.4-0.1,2-0.4l61.4-19.9c2.4-0.8,5.1-0.3,7.1,1.4l52.9,44.7c1.3,1.1,2.2,2.6,2.5,4.2l18.1,92.5
		C899.9,284.4,897.5,288.2,893.6,289.2z"/>
	<path class="st3" d="M535.1,664.3l84.3-58.1c0.7-0.5,1.6-0.7,2.4-0.5l35.1,0.2c0.9,0,1.8-0.2,2.6-0.7c2-1.3,3.6-3.4,4.3-4.7
		c0.2-0.5,0.5-0.9,0.8-1.4l8.2-12.9c1.1-2.7,5.1-2.6,6,0.2l15.1,44.9c0.4,1.3,0.2,2.8-0.7,3.9l-52.7,63.2c-0.6,0.7-0.9,1.5-0.9,2.4
		l-3.8,74.2c-0.1,2-1.6,3.6-3.6,3.8l-46.1,5c-2.4,0.3-4.5-1.6-4.5-4v-65.5c0-1.1-0.5-2.2-1.3-3l-45.5-40.8
		C532.7,668.9,532.9,665.8,535.1,664.3z"/>
	<path class="st2" d="M587.1,792.3l39.1-4.5c4-0.5,6.4,4.2,3.8,7.2l-45.8,51.6c-1.7,1.9-3.9,3.4-6.3,4.2l-96.3,33.4
		c-4.1,1.4-8.3,2.1-12.6,2.1h-69c-5.5,0-10.9-1.1-16-3.3l-25.1-10.9c-4.4-1.9-3-8.5,1.8-8.4l81.3,1.5c3,0.1,6.1-0.4,8.9-1.3
		l36.2-11.5c2.3-0.7,4.4-1.7,6.4-3l83.3-53.6C579.9,794,583.4,792.7,587.1,792.3z"/>
	<path class="st5" d="M640.8,807.5l-37.5,42.6c-1.9,2.2-0.8,5.6,2.1,6.2l68.1,14.6c4.7,1,9.5,1.2,14.3,0.7l79.7-9.3
		c4.3-0.5,4.6-6.6,0.3-7.5l-86.9-18.4c-4.2-0.9-8-3-11.1-6l-23.5-23.2C644.8,805.8,642.3,805.9,640.8,807.5z"/>
</g>
</svg>
